<svg xmlns="http://www.w3.org/2000/svg" viewBox="0 0 346.97 229.27">
  <defs>
    <style>
      .cls-1 {
        fill: #ca9e67;
      }
    </style>
  </defs>
  <title>Fichier 2</title>
  <g id="Calque_2" data-name="Calque 2">
    <g id="Calque_1-2" data-name="Calque 1">
      <g>
        <path class="cls-1" d="M90,214.72S10.57,226,.72,146.51,84.4,50.88,102.69,53c0,0,19-40.08,71-16.88,0,0,25.32-33.44,68.21-7.23,0,0,14.06-22.37,37.27-10,0,0,56.25-27.86,67.51-15.85,0,0,5.63,7.79-34.46,42.25,0,0-7,30.24-33.75,31.64,0,0,1.41,33-32.35,38.67,0,0,2.11,53.44-59.77,72.43,0,0-12,59.07-58.37,35.86,0,0,3.52-72.43-25.32-64S90,214.72,90,214.72Z"/>
        <path class="cls-1" d="M86.49,199.94s8.63-28.59,40.65-3.65c0,0,17-58.93-22.34-57.53S86.49,199.94,86.49,199.94Z"/>
      </g>
    </g>
  </g>
</svg>
