<svg xmlns="http://www.w3.org/2000/svg" viewBox="0 0 249.32 274.25">
  <defs>
    <style>
      .cls-1 {
        fill: #7d4e24;
      }
    </style>
  </defs>
  <title>futs</title>
  <g id="Calque_2" data-name="Calque 2">
    <g id="Calque_1-2" data-name="Calque 1">
      <path class="cls-1" d="M236.36,186.78c1-1.39,1.91-2.83,2.79-4.32l0,0h0a76.79,76.79,0,0,0,10.16-38.83c0-28.46-14.46-52.66-34.62-61.61a81.5,81.5,0,0,0,1.71-16.67c0-34.91-21.75-63.43-49.11-65.23L167.21,0l-.35.07c-.77,0-1.53-.07-2.31-.07a42.5,42.5,0,0,0-18.93,4.51h0l-.06,0q-2.08,1-4.07,2.28L125.16,16,96.82,31.51a42.16,42.16,0,0,0-5.53,1.31c-22.64,7-39.44,32.75-39.44,63.44A76.8,76.8,0,0,0,62,135c-7.11,3.83-13.8,7.22-19.22,9.59h0C18.47,150,0,176.76,0,208.93,0,245,23.22,274.25,51.86,274.25c1,0,2.06,0,3.08-.12h0a14.69,14.69,0,0,0,3.9-.48,45.39,45.39,0,0,0,20.72-9.5h0c8.1-5.07,19.54-15.15,30.58-23.69,8.83,20.15,25.86,33.8,45.42,33.8,14.51,0,27.63-7.52,37-19.62h0l0,0a65.09,65.09,0,0,0,6.1-9.46Z"/>
    </g>
  </g>
</svg>
