<svg xmlns="http://www.w3.org/2000/svg" viewBox="0 0 530.95 232.52">
  <defs>
    <style>
      .cls-1 {
        fill: #00892e;
        stroke: #00892e;
        stroke-miterlimit: 10;
      }
    </style>
  </defs>
  <title>parcelle</title>
  <g id="Calque_2" data-name="Calque 2">
    <g id="Calque_1-2" data-name="Calque 1">
      <polygon class="cls-1" points="0.65 85.82 351.78 231.97 515.46 149.13 530.3 113.12 521.35 109.44 506.45 144.48 494 139.34 508.89 104.3 499.16 100.29 485.04 135.66 473.2 131.25 487.87 95.64 478.53 91.8 463.64 126.84 446.12 119.62 459.46 83.94 449.34 79.77 432.72 114.57 415.27 108.31 430.65 72.07 419.37 67.42 403.37 102.94 385.63 95.16 401.07 59.88 389.01 54.91 372.62 90.27 357.54 82.66 371.88 47.85 359.04 42.56 344.64 76.4 329.79 69.35 344.64 36.63 331.79 31.34 316.94 64.06 307.21 60.05 320.12 26.52 307.66 21.39 292.98 53.71 275.73 44.74 288.98 13.7 276.52 8.56 262.77 37.52 258.65 35.36 249.28 37.11 261.47 2.36 249.26 1.07 234.17 39.16 221.24 42.56 234.09 1.06 222.17 0.52 207.48 45.01 189.73 48.3 202.2 4.77 188.15 6.47 172.72 51.27 154.37 56.03 171.52 11.47 158.26 9.75 140.84 54.98 124.13 58.7 139.5 16.99 126.1 17.09 107.78 60.08 90.03 63.37 105.38 17.29 89.77 18.34 70.81 67.31 53.2 68.79 71.34 21.82 55.67 23.01 38.33 69.52 22.73 74.95 38.74 27.26 25.49 25.55 0.65 85.82"/>
    </g>
  </g>
</svg>
