<svg xmlns="http://www.w3.org/2000/svg" viewBox="0 0 346.79 220.87">
  <defs>
    <style>
      .cls-1 {
        fill: #008d36;
        stroke: #008d36;
        stroke-miterlimit: 10;
      }
    </style>
  </defs>
  <title>parcelle2</title>
  <g id="Calque_2" data-name="Calque 2">
    <g id="Calque_1-2" data-name="Calque 1">
      <path class="cls-1" d="M343.41,116.92c9.13-14.85-6.08-43.74-9.46-47.16s-.8-12.55,0-20.16-8.37-17.12-8.37-17.12S324,6.24,308,8.52s-7.61,24.34-7.61,24.34,11.41,28.52,1.9,35-8,45.62-8,45.62H281.42c21.3-23.22,3.42-47.9-9.51-57s-7.61-20.54-4.18-23.58,2.66-8,0-8.75-4.95,1.9-4.95,1.9c-6.09-1.14-9.51,9.51-17.87,24.72s7.61,26.62,7.61,26.62c-30.8,17.11-27,34.23-27,34.23h-22L225.13,94.1c.76-1.14,0-11.41,0-11.41-1.14-8.75-6.85-12.55-6.85-12.55-16-8-10.27-19.4-10.27-20.92s5.7-4.56,4.94-12.93-9.89-9.89-9.89-9.89c-1.9-5.32-8-6.08-8-6.08-30,4.56-17.5,38-17.5,38s5.32,7.23-2.66,23.2,4.18,31.93,4.18,31.93l-24,14.85L160.86,108C166.56,77.41,146,62.91,146,62.91c-16.36-10.27-18.64-19-18.64-19,0-3-4.18-32.71-4.18-32.71S112.94-.22,103.81.54s-9.89,12.17-9.89,12.17C83.27,23.36,77.18,43.89,88.6,60.63s4.56,32.71,4.56,32.71C89,106.65,89,116.16,89,116.16c1.9,26.62,30.81,30.81,30.81,30.81l-.38,8.37-60.85,43s-11.79,9.51-5.7-6.85,13.31-18.63,13.31-18.63C90.49,125.17,44.1,97.52,44.1,97.52c4.94-2.66.76-28.91.76-28.91a5.66,5.66,0,0,0,3-5.32C43,48.84,28.12,54.16,22.8,58.35s-1.52,24.72-1.52,24.72c-6.46,3.42-16.61,21.43-16.61,21.43-15.21,22.82,16.1,33,16.1,33l.63,2c-4.56,40.57,17,47.41,17,47.41-12.17,14.45,0,33.47,0,33.47l223.06-.53Z"/>
    </g>
  </g>
</svg>
